:SAMPLES-PER-SECOND 24
:FULLY-SPECIFIED
:DEGREES
514
root  7.16318 37.9469 14.5978 -2.58984 -52.2198 5.17719
RightUpLeg  11.7401 4.7468 -14.9123
RightLeg  29.541 -6.27549 -4.07005
RightFoot  -12.9357 0.192163 19.983
RightToes  -2.08645e-008 3.77894e-005 6.81332e-007
Spine  -0.842345 1.76451 1.76626
Spine1  6.89619 1.5417 0.497106
HEad  28.0539 4.84949 8.24986
LeftShoulder1  2.6644 -6.57309 -19.9943
LeftArm  -59.1378 -47.7486 1.75906
LeftForeArm  179.834 -60.9149 -163.107
LeftHand  0.322926 6.99407 23.5189
RightShoulder  2.01695 4.21314 19.7518
RightArm  -23.6927 52.6501 33.9285
RightForeArm  174.397 65.9415 158.55
RightHand  -2.04564 1.21091 -35.1397
LeftUpLeg  -24.7364 -0.914881 2.15513
LeftLeg  23.6828 8.9359 4.59359
LeftFoot  1.7942 0.715525 -6.3068
LeftToes  1.24767e-006 1.47042e-008 1.32732e-009
515
root  6.90491 37.801 15.7944 -2.51196 -54.4029 4.68222
RightUpLeg  9.11223 5.3167 -16.4235
RightLeg  34.9021 -5.16045 -4.11542
RightFoot  -9.36185 -0.468075 22.487
RightToes  -2.08645e-008 3.77894e-005 6.81332e-007
Spine  -0.370609 2.50397 1.22687
Spine1  8.82235 2.33431 0.856192
HEad  31.7521 4.68408 8.65546
LeftShoulder1  2.83287 -6.97177 -20.6367
LeftArm  -57.1303 -48.014 -0.227559
LeftForeArm  -179.8 -60.1746 -163.62
LeftHand  0.239175 6.6715 22.1174
RightShoulder  2.16385 4.362 21.2269
RightArm  -23.2176 51.4242 33.3127
RightForeArm  173.712 65.9653 158.45
RightHand  -2.02636 1.20582 -34.8557
LeftUpLeg  -25.2304 -0.698309 1.65719
LeftLeg  29.1219 9.93231 6.26493
LeftFoot  -2.03655 0.509341 -6.13573
LeftToes  1.24767e-006 1.47042e-008 1.32732e-009
516
root  6.6669 38.044 16.8034 -1.63354 -58.4787 4.20828
RightUpLeg  1.92024 6.72702 -17.6352
RightLeg  43.1772 -5.43148 -5.77639
RightFoot  0.400099 -1.98977 19.6462
RightToes  -2.08645e-008 3.77894e-005 6.81332e-007
Spine  0.301258 3.1866 0.0258406
Spine1  9.93353 2.92359 1.66614
HEad  35.7778 5.39455 8.13869
LeftShoulder1  3.02673 -7.1416 -22.1238
LeftArm  -56.3428 -45.5021 -0.0563736
LeftForeArm  178.784 -58.7414 -164.379
LeftHand  0.131743 6.16951 20.6753
RightShoulder  2.29074 4.65343 21.842
RightArm  -19.8407 50.6544 36.2026
RightForeArm  172.936 66.4992 157.844
RightHand  -2.14844 1.7334 -34.2642
LeftUpLeg  -23.867 2.21981 1.23417
LeftLeg  29.0812 10.7853 6.76105
LeftFoot  -3.90434 0.436887 -6.34601
LeftToes  1.24767e-006 1.47042e-008 1.32732e-009
517
root  6.45025 38.4218 17.5253 0.548096 -61.9832 3.185
RightUpLeg  -7.53224 6.57433 -17.6832
RightLeg  51.6352 -6.13043 -8.63668
RightFoot  10.9837 -1.90682 10.2476
RightToes  -2.08645e-008 3.77894e-005 6.81332e-007
Spine  1.31407 3.55183 -2.10757
Spine1  9.77715 3.15422 2.43131
HEad  38.5027 5.2645 7.91511
LeftShoulder1  2.93455 -6.954 -21.7226
LeftArm  -55.0674 -43.4255 -1.07054
LeftForeArm  177.262 -58.4406 -164.428
LeftHand  -0.012236 5.3653 19.165
RightShoulder  2.58385 5.06836 24.009
RightArm  -17.8384 49.4466 36.5384
RightForeArm  173.008 65.8488 158.483
RightHand  -2.15169 2.00507 -33.1187
LeftUpLeg  -22.6957 3.70926 1.27759
LeftLeg  27.0991 13.0168 7.46374
LeftFoot  -3.63211 0.397334 -5.57731
LeftToes  1.24767e-006 1.47042e-008 1.32732e-009
518
root  6.26635 38.8338 18.0127 4.32935 -63.1432 0.358978
RightUpLeg  -14.7462 3.52188 -15.7396
RightLeg  56.3371 -5.51542 -9.2738
RightFoot  12.3029 -0.805179 4.25137
RightToes  -2.08645e-008 3.77894e-005 6.81332e-007
Spine  2.21419 3.05784 -4.13204
Spine1  10.3773 2.28915 3.49223
HEad  39.6073 4.72423 7.41958
LeftShoulder1  2.83628 -6.85328 -21.0052
LeftArm  -53.933 -42.7675 -1.99576
LeftForeArm  176.341 -58.9333 -164.055
LeftHand  -0.0737884 4.98175 18.4902
RightShoulder  2.7434 5.22167 25.3854
RightArm  -17.4933 48.5035 35.6091
RightForeArm  172.711 65.2083 159.052
RightHand  -2.16102 2.30529 -32.0356
LeftUpLeg  -21.7643 3.17231 2.31177
LeftLeg  24.3765 14.7475 7.5086
LeftFoot  -3.27477 0.430491 -5.8253
LeftToes  1.24767e-006 1.47042e-008 1.32732e-009
519
root  6.0826 39.3049 18.4645 8.60229 -62.8538 -3.39313
RightUpLeg  -19.0883 -0.637003 -12.6407
RightLeg  55.9157 -4.17631 -7.06169
RightFoot  7.01378 -0.907646 5.9631
RightToes  -2.08645e-008 3.77894e-005 6.81332e-007
Spine  3.099 1.10056 -7.7125
Spine1  12.175 -1.6929 9.45954
HEad  40.2642 7.53052 3.31645
LeftShoulder1  3.40193 -7.18171 -25.6515
LeftArm  -56.6253 -37.9595 3.1059
LeftForeArm  174.246 -56.9559 -164.992
LeftHand  0.0328615 5.63769 19.2014
RightShoulder  2.00773 4.72438 17.8259
RightArm  -11.0681 49.6751 46.8319
RightForeArm  173.456 66.9271 157.456
RightHand  -2.5823 3.83494 -31.9499
LeftUpLeg  -20.14 2.38313 3.72263
LeftLeg  20.2877 15.6941 6.63593
LeftFoot  -2.22964 0.483114 -5.90132
LeftToes  1.24767e-006 1.47042e-008 1.32732e-009
520
root  5.84633 39.6815 18.9006 11.4751 -62.4164 -5.67847
RightUpLeg  -22.2708 -4.31074 -9.88037
RightLeg  51.5796 -3.04231 -4.50209
RightFoot  3.18937 -1.0929 8.68373
RightToes  -2.08645e-008 3.77894e-005 6.81332e-007
Spine  4.6674 -0.398925 -11.1125
Spine1  12.5864 -5.13726 14.8309
HEad  41.0764 9.68314 -0.835012
LeftShoulder1  4.07326 -7.8773 -29.8029
LeftArm  -57.5359 -33.5856 6.13374
LeftForeArm  172.398 -54.8607 -165.966
LeftHand  0.0918967 5.96312 20.2708
RightShoulder  1.46635 4.4849 11.2405
RightArm  -6.50936 50.3608 55.4459
RightForeArm  175.754 67.4655 157.146
RightHand  -2.88907 4.93136 -31.9602
LeftUpLeg  -18.5493 2.18818 4.46632
LeftLeg  16.5335 16.0163 5.57492
LeftFoot  -1.02158 0.498329 -5.4471
LeftToes  1.24767e-006 1.47042e-008 1.32732e-009
521
root  5.51622 39.8048 19.2586 12.0742 -62.3228 -5.49487
RightUpLeg  -24.1524 -5.818 -8.50715
RightLeg  44.277 -3.26156 -3.73518
RightFoot  0.673454 -0.936893 8.91016
RightToes  -2.08645e-008 3.77894e-005 6.81332e-007
Spine  5.05327 -0.692406 -12.2425
Spine1  13.1856 -5.29811 13.821
HEad  41.5556 8.22734 -1.50195
LeftShoulder1  4.17931 -8.21319 -29.6517
LeftArm  -55.1601 -35.1419 4.62669
LeftForeArm  171.898 -55.5722 -165.559
LeftHand  0.0329272 5.60129 21.4961
RightShoulder  1.68864 4.57129 14.046
RightArm  -8.34857 50.2712 51.0243
RightForeArm  176.667 66.1777 158.57
RightHand  -2.73418 4.45203 -31.7292
LeftUpLeg  -17.8628 2.69399 4.1554
LeftLeg  15.0037 15.431 4.79652
LeftFoot  -1.45058 0.4919 -5.58511
LeftToes  1.24767e-006 1.47042e-008 1.32732e-009
522
root  5.09446 39.7123 19.5982 11.334 -62.5144 -4.11166
RightUpLeg  -23.7761 -3.74485 -8.94388
RightLeg  33.1171 -6.03699 -4.46639
RightFoot  -2.71728 -0.758889 9.79551
RightToes  -2.08645e-008 3.77894e-005 6.81332e-007
Spine  4.6468 -1.04301 -13.2694
Spine1  14.1332 -5.30959 12.5609
HEad  41.9407 7.47439 -2.01513
LeftShoulder1  4.31539 -8.551 -29.7838
LeftArm  -53.2047 -35.6218 3.00386
LeftForeArm  172.54 -55.9074 -165.437
LeftHand  0.0455551 5.64211 22.9487
RightShoulder  1.82172 4.62691 15.6905
RightArm  -8.6037 50.1955 49.3214
RightForeArm  176.842 66.1577 158.609
RightHand  -2.58414 3.70716 -32.3976
LeftUpLeg  -17.6989 3.21558 3.30577
LeftLeg  15.4746 15.1036 4.56403
LeftFoot  -3.06467 0.434881 -5.7551
LeftToes  1.24767e-006 1.47042e-008 1.32732e-009
523
root  4.59212 39.6064 19.9539 10.0996 -62.3068 -2.35068
RightUpLeg  -21.6842 -0.151932 -10.3019
RightLeg  18.611 -9.9347 -4.26829
RightFoot  -3.27189 -0.587882 8.11847
RightToes  -2.08645e-008 3.77894e-005 6.81332e-007
Spine  3.71405 -1.2398 -13.6163
Spine1  15.1653 -5.16827 11.7258
HEad  42.7679 6.80918 -1.83732
LeftShoulder1  4.37931 -8.75059 -29.721
LeftArm  -50.9875 -36.3404 0.671495
LeftForeArm  173.945 -56.2832 -165.353
LeftHand  0.0288038 5.5576 22.957
RightShoulder  1.94905 4.68091 17.2288
RightArm  -9.36467 49.5808 47.7871
RightForeArm  177.068 66.1202 158.668
RightHand  -2.49806 3.42283 -32.3299
LeftUpLeg  -17.3633 3.23418 2.25065
LeftLeg  16.1344 15.0526 4.66965
LeftFoot  -4.45841 0.363669 -5.60221
LeftToes  1.24767e-006 1.47042e-008 1.32732e-009
524
root  4.01013 39.541 20.2744 8.82739 -61.0773 -0.694946
RightUpLeg  -19.7041 -1.73213 -9.58638
RightLeg  7.38779 -5.61689 -3.82745
RightFoot  0.515889 -0.399891 3.95825
RightToes  -2.08645e-008 3.77894e-005 6.81332e-007
Spine  2.36298 -1.26856 -13.1142
Spine1  16.6788 -5.0799 11.3944
HEad  43.5229 5.70483 -1.55021
LeftShoulder1  4.41578 -8.9113 -29.549
LeftArm  -49.049 -37.5537 -1.61777
LeftForeArm  175.135 -56.954 -165.089
LeftHand  -0.00438385 5.39706 21.8332
RightShoulder  2.10294 4.76683 18.9803
RightArm  -11.6371 48.8534 44.7791
RightForeArm  175.931 65.3759 159.241
RightHand  -2.44022 3.77157 -30.4904
LeftUpLeg  -16.9857 2.99504 1.33222
LeftLeg  16.8223 13.9286 4.73978
LeftFoot  -5.79897 0.316347 -5.81713
LeftToes  1.24767e-006 1.47042e-008 1.32732e-009
525
root  3.40029 39.481 20.5403 8.60864 -59.531 -0.614227
RightUpLeg  -19.32 -2.2215 -8.75309
RightLeg  6.5823 -1.25707 -4.47424
RightFoot  2.80829 -0.430816 3.58303
RightToes  -2.08645e-008 3.77894e-005 6.81332e-007
Spine  1.22096 -1.10105 -10.4016
Spine1  18.1759 -4.56365 10.1465
HEad  44.148 4.56102 -1.47022
LeftShoulder1  4.41913 -9.03067 -29.231
LeftArm  -47.6118 -38.6693 -3.72693
LeftForeArm  175.642 -57.8521 -164.63
LeftHand  -0.0493099 5.15307 21.0214
RightShoulder  2.23996 4.7985 20.655
RightArm  -14.5101 48.8799 40.9027
RightForeArm  173.748 64.7061 159.611
RightHand  -2.32441 3.81661 -28.9759
LeftUpLeg  -16.6446 2.3515 1.45898
LeftLeg  18.2227 12.7881 4.94451
LeftFoot  -7.13778 0.282615 -6.53418
LeftToes  1.24767e-006 1.47042e-008 1.32732e-009
526
root  2.74766 39.3818 20.6884 8.83203 -58.6497 -1.22214
RightUpLeg  -19.2124 2.12048 -9.77133
RightLeg  10.4194 -5.36572 -4.55855
RightFoot  1.08773 -0.687537 6.37525
RightToes  -2.08645e-008 3.77894e-005 6.81332e-007
Spine  0.888913 -0.844025 -7.17291
Spine1  18.5515 -3.52545 7.79912
HEad  44.6063 3.97564 -0.853024
LeftShoulder1  4.30493 -8.96 -28.4973
LeftArm  -46.7044 -38.9908 -5.27526
LeftForeArm  175.593 -57.9473 -164.571
LeftHand  -0.0712434 5.02886 20.7625
RightShoulder  2.33389 4.79133 21.8922
RightArm  -16.5721 49.4321 37.9477
RightForeArm  173.082 64.3014 159.892
RightHand  -2.14883 3.30069 -28.4007
LeftUpLeg  -16.4055 1.47237 2.3148
LeftLeg  20.412 12.5202 5.42794
LeftFoot  -8.41817 0.241822 -7.49788
LeftToes  1.24767e-006 1.47042e-008 1.32732e-009
527
root  2.01109 39.3849 20.7184 8.80371 -58.0388 -1.46411
RightUpLeg  -18.7869 3.69347 -10.1366
RightLeg  12.7516 -8.53761 -4.12386
RightFoot  -1.08051 -0.690149 7.57287
RightToes  -2.08645e-008 3.77894e-005 6.81332e-007
Spine  0.899685 -0.563571 -5.64251
Spine1  18.045 -2.80262 6.5982
HEad  44.3169 3.67584 0.738071
LeftShoulder1  4.05216 -8.66074 -27.2322
LeftArm  -46.9799 -39.2197 -5.31624
LeftForeArm  175.72 -57.1532 -165.029
LeftHand  -0.0262252 5.28253 20.3625
RightShoulder  2.41107 4.82511 22.7571
RightArm  -17.7197 49.6507 36.3999
RightForeArm  172.774 63.9447 160.162
RightHand  -2.02231 2.9 -28.0332
LeftUpLeg  -15.4823 1.29537 3.2286
LeftLeg  21.0544 11.7545 5.27995
LeftFoot  -9.13059 0.214087 -8.2452
LeftToes  1.24767e-006 1.47042e-008 1.32732e-009
528
root  1.16022 39.4974 20.693 7.83911 -56.6183 -0.874786
RightUpLeg  -17.8118 2.5371 -9.7076
RightLeg  14.4963 -8.56149 -3.66339
RightFoot  -2.2444 -0.524849 6.38876
RightToes  -2.08645e-008 3.77894e-005 6.81332e-007
Spine  0.679294 -0.46196 -5.70394
Spine1  17.3564 -2.72306 6.8704
HEad  43.2648 3.79472 3.04714
LeftShoulder1  3.68944 -8.17044 -25.4579
LeftArm  -48.233 -40.8721 -4.31206
LeftForeArm  176.335 -57.1707 -165.071
LeftHand  -0.00923734 5.38396 19.5581
RightShoulder  2.49352 4.88403 23.5834
RightArm  -18.8821 49.2814 35.0646
RightForeArm  171.912 63.739 160.244
RightHand  -1.97558 2.76766 -27.8368
LeftUpLeg  -13.4588 1.63895 3.92799
LeftLeg  19.6625 9.84621 4.2167
LeftFoot  -8.97947 0.241172 -9.06372
LeftToes  1.24767e-006 1.47042e-008 1.32732e-009
